<svg width="1253" height="698" viewBox="0 0 1253 698" fill="none" xmlns="http://www.w3.org/2000/svg">
<path fill-rule="evenodd" clip-rule="evenodd" d="M1.5 196C1.5 204 1.5 205.5 1.5 205.5C1.5 205.5 19.4995 208.5 23.9996 211.788C28.4997 215.076 29.8328 218 30.9995 221.5C32.1662 225 30.4709 347.631 30.4709 347.631C30.8428 446.238 30.4101 490.231 29.0867 494.883C29.0867 507 0 509 0 509C0.000691473 517 0.000396729 514.876 0.000396729 519.666V525H67.0618H134.123V519.796C134.123 514.99 133.379 514.422 124.397 512.363C119.048 511.138 112.512 508.394 109.874 506.269C100.462 498.687 100.145 510.294 100.145 436.822V368.99L113.5 370.945H124.5C139.189 370.945 144 370.945 153 370.945C163.903 370.945 174 368.99 183.502 387C191.617 399.594 196.5 407.402 196.5 407.402C196.5 407.402 203.754 407.5 213 407.5V390.5V384.5V353.963L189.997 347.631H182.502C172.497 348.239 174.998 353.586 158.498 348.239C158.498 348.239 156.368 346.179 142.596 347.631C136.26 348.298 129.816 347.946 118.997 347.631L101.04 342.961V267.644V215.5H156.5C183.5 215.5 186.502 215.5 186.502 215.5C198.046 217.196 205.252 217.33 222 250C228.169 262.034 239.484 282.742 240 283.5C240.515 284.258 245 284 249 284H263.5L263 274L262 254.5L260.801 227.927C260.141 206.452 228.177 194.807 227.658 192.037L239 191.648L127 190H63.5004H32.0004H16.0004H1.5V191V196Z" fill="black"/>
<path d="M15.6606 525V514.353L25.2936 511.818C32.0537 509.79 36.4477 506.748 38.4757 502.692C40.5037 498.636 41.6867 493.059 42.0247 485.961C42.3627 466.695 42.5317 447.26 42.5317 427.655C42.5317 407.713 42.5317 387.771 42.5317 367.829V347.042C42.5317 327.438 42.5317 307.834 42.5317 288.23C42.5317 268.625 42.3627 249.021 42.0247 229.417C41.6867 222.319 40.6727 216.911 38.9827 213.193C37.2927 209.137 33.2367 206.095 26.8146 204.067L15.6606 200.518V189.871H259.529L263.078 275.554H249.389L223.025 225.361C219.645 218.939 215.927 214.038 211.871 210.658C207.815 206.94 201.9 205.081 194.126 205.081H116.047C115.709 227.727 115.371 251.049 115.033 275.047C115.033 298.708 115.033 322.368 115.033 346.028H163.705C171.48 346.028 177.226 344.338 180.944 340.958C184.662 337.24 188.211 332.17 191.591 325.748L201.731 306.989H212.885V399.77H201.731L191.591 381.518C187.873 374.758 184.155 369.688 180.437 366.308C177.057 362.59 171.48 360.731 163.705 360.731H115.033C115.033 383.039 115.033 404.502 115.033 425.12C115.033 445.401 115.202 465.343 115.54 484.947C115.54 498.805 121.793 507.424 134.299 510.804L149.509 514.353V525H15.6606Z" fill="#9D482C"/>
<path d="M279.497 529.259C267.937 529.259 258.101 526.014 249.989 519.524C242.08 512.832 238.126 503.3 238.126 490.929C238.126 481.195 242.79 472.272 252.119 464.16C261.651 455.845 276.556 449.761 296.837 445.908C300.284 445.096 304.239 444.387 308.7 443.778C313.365 442.967 317.928 442.156 322.389 441.344V419.746C322.389 405.956 320.666 396.424 317.218 391.151C313.77 385.878 308.295 383.242 300.791 383.242H299.879C295.214 383.242 291.462 384.763 288.623 387.805C285.987 390.644 284.263 395.41 283.452 402.102L282.539 406.057C281.931 414.169 279.801 420.152 276.151 424.005C272.5 427.655 267.937 429.481 262.462 429.481C257.392 429.481 253.133 427.96 249.685 424.918C246.44 421.673 244.818 417.515 244.818 412.445C244.818 404.13 247.657 397.134 253.336 391.455C259.014 385.777 266.518 381.518 275.847 378.679C285.378 375.84 295.62 374.42 306.571 374.42C324.62 374.42 338.411 378.78 347.942 387.501C357.474 396.221 362.24 410.417 362.24 430.089V497.926C362.24 506.646 366.397 511.007 374.712 511.007H381.709L384.751 514.353C381.1 519.017 377.044 522.566 372.583 525C368.121 527.636 362.037 528.955 354.331 528.955C345.61 528.955 338.614 526.927 333.341 522.871C328.271 518.612 324.924 513.035 323.302 506.139C316.812 513.035 310.424 518.612 304.137 522.871C297.851 527.129 289.637 529.259 279.497 529.259ZM297.141 509.79C301.197 509.79 305.05 508.877 308.7 507.052C312.351 505.227 316.914 502.185 322.389 497.926V449.254C317.117 450.065 311.742 451.079 306.267 452.296C297.546 454.324 290.448 458.076 284.973 463.551C279.7 469.027 277.063 476.429 277.063 485.758C277.063 493.87 278.889 499.954 282.539 504.01C286.392 507.863 291.259 509.79 297.141 509.79ZM444.721 525.913L398.179 399.365C396.962 395.714 395.238 392.976 393.007 391.151C390.979 389.123 388.241 387.501 384.794 386.284L379.622 384.763V378.983H452.326V384.763L447.459 385.98C439.753 388.008 437.218 392.875 439.854 400.581L467.537 483.324L493.089 415.487L488.526 401.798C487.107 397.539 485.586 394.193 483.963 391.76C482.544 389.326 480.414 387.602 477.575 386.588L472.404 384.763V378.983H535.069V384.763L530.811 386.284C527.566 387.501 525.538 389.225 524.726 391.455C524.118 393.483 524.524 396.525 525.943 400.581L553.017 481.499L580.395 400.886C582.829 392.976 581.004 388.211 574.92 386.588L568.836 384.763V378.983H609.599V384.763L602.906 386.588C599.459 387.602 596.822 389.123 594.997 391.151C593.172 393.179 591.651 396.018 590.434 399.669L546.629 525.913H530.811L497.653 428.872L461.757 525.913H444.721ZM643.753 598.313C635.641 598.313 629.252 596.386 624.588 592.533C619.923 588.68 617.591 583.61 617.591 577.323C617.591 571.644 619.518 567.081 623.371 563.634C627.427 560.389 631.889 558.766 636.756 558.766C641.826 558.766 645.983 559.679 649.228 561.504C652.473 563.329 655.312 565.966 657.746 569.413L659.571 571.847C664.236 577.526 668.596 577.424 672.652 571.543C675.288 568.095 677.823 563.836 680.257 558.766C682.893 553.696 685.732 547.004 688.774 538.689L630.976 400.581C629.556 396.728 627.934 393.788 626.109 391.76C624.284 389.529 621.546 387.704 617.895 386.284L612.724 384.459V378.983H687.862V384.459L681.474 386.284C677.012 387.704 674.578 389.934 674.173 392.976C673.97 395.816 674.68 399.567 676.302 404.232L707.331 485.15L737.143 403.623C738.765 399.162 739.373 395.41 738.968 392.368C738.562 389.326 736.027 387.298 731.363 386.284L724.67 384.459V378.983H769.996V384.459L763.304 386.588C758.842 387.805 755.597 389.63 753.569 392.064C751.744 394.295 750.02 397.641 748.398 402.102L699.726 532.909C691.614 555.217 683.299 571.644 674.781 582.19C666.466 592.938 656.123 598.313 643.753 598.313ZM845.36 374.42C858.136 374.42 869.088 377.056 878.214 382.329C887.34 387.602 894.336 394.903 899.204 404.232C904.274 413.358 906.809 423.904 906.809 435.869C906.809 438.505 906.707 441.04 906.505 443.474C906.302 445.705 905.896 447.834 905.288 449.862H813.723C813.926 470.751 817.779 485.758 825.283 494.884C832.989 504.01 844.143 508.573 858.745 508.573C868.885 508.573 877.098 506.951 883.385 503.706C889.672 500.258 895.452 495.492 900.725 489.408L905.592 493.971C899.508 505.125 891.193 513.846 880.647 520.133C870.305 526.217 857.934 529.259 843.535 529.259C829.136 529.259 816.461 526.217 805.51 520.133C794.558 514.049 785.939 505.328 779.652 493.971C773.568 482.412 770.526 468.621 770.526 452.6C770.526 435.97 774.075 421.876 781.173 410.316C788.474 398.756 797.803 389.934 809.16 383.85C820.72 377.563 832.786 374.42 845.36 374.42ZM843.839 383.242C837.958 383.242 832.786 384.966 828.325 388.413C824.066 391.658 820.618 397.539 817.982 406.057C815.548 414.372 814.129 426.134 813.723 441.344H868.175C870.406 420.862 869.595 406.057 865.741 396.931C861.888 387.805 854.587 383.242 843.839 383.242ZM919.26 525V519.22L923.823 517.699C927.879 516.685 930.617 514.961 932.036 512.528C933.659 510.094 934.47 506.849 934.47 502.793V413.662C934.267 409.2 933.456 405.854 932.036 403.623C930.617 401.19 927.879 399.567 923.823 398.756L919.26 397.539V392.064L968.845 374.42L972.495 377.766L975.233 404.536V406.665C978.275 400.987 982.128 395.714 986.792 390.847C991.457 385.98 996.527 382.025 1002 378.983C1007.48 375.941 1012.95 374.42 1018.43 374.42C1026.14 374.42 1031.92 376.448 1035.77 380.504C1039.62 384.56 1041.55 389.732 1041.55 396.018C1041.55 402.914 1039.62 408.186 1035.77 411.837C1031.92 415.285 1027.25 417.008 1021.78 417.008C1013.66 417.008 1006.67 413.358 1000.79 406.057L1000.18 405.449C998.149 403.015 995.817 401.697 993.181 401.494C990.747 401.088 988.313 402.305 985.88 405.144C983.852 407.172 981.925 409.606 980.1 412.445C978.478 415.082 976.957 418.225 975.537 421.876V501.576C975.537 505.43 976.348 508.675 977.971 511.311C979.593 513.745 982.331 515.468 986.184 516.482L995.31 519.22V525H919.26ZM1049.33 525V518.308L1132.07 386.892H1089.79C1084.72 386.892 1080.66 388.312 1077.62 391.151C1074.78 393.99 1072.14 397.742 1069.71 402.407L1059.37 422.484L1051.46 421.876L1053.59 378.983H1174.05V385.067L1093.13 516.787H1137.24C1143.33 516.787 1147.79 515.367 1150.63 512.528C1153.67 509.486 1156.41 505.43 1158.84 500.36L1169.49 478.153H1177.4L1174.66 525H1049.33Z" fill="black"/>
<path d="M805.656 601.359H819.672C819.391 605.953 818.125 610.031 815.875 613.594C813.656 617.156 810.547 619.938 806.547 621.938C802.578 623.938 797.797 624.938 792.203 624.938C787.828 624.938 783.906 624.188 780.438 622.688C776.969 621.156 774 618.969 771.531 616.125C769.094 613.281 767.234 609.844 765.953 605.812C764.672 601.781 764.031 597.266 764.031 592.266V587.531C764.031 582.531 764.688 578.016 766 573.984C767.344 569.922 769.25 566.469 771.719 563.625C774.219 560.781 777.203 558.594 780.672 557.062C784.141 555.531 788.016 554.766 792.297 554.766C797.984 554.766 802.781 555.797 806.688 557.859C810.625 559.922 813.672 562.766 815.828 566.391C818.016 570.016 819.328 574.141 819.766 578.766H805.703C805.547 576.016 805 573.688 804.062 571.781C803.125 569.844 801.703 568.391 799.797 567.422C797.922 566.422 795.422 565.922 792.297 565.922C789.953 565.922 787.906 566.359 786.156 567.234C784.406 568.109 782.938 569.438 781.75 571.219C780.562 573 779.672 575.25 779.078 577.969C778.516 580.656 778.234 583.812 778.234 587.438V592.266C778.234 595.797 778.5 598.906 779.031 601.594C779.562 604.25 780.375 606.5 781.469 608.344C782.594 610.156 784.031 611.531 785.781 612.469C787.562 613.375 789.703 613.828 792.203 613.828C795.141 613.828 797.562 613.359 799.469 612.422C801.375 611.484 802.828 610.094 803.828 608.25C804.859 606.406 805.469 604.109 805.656 601.359ZM852.556 609.75L868.634 555.75H884.29L860.524 624H850.212L852.556 609.75ZM837.743 555.75L853.774 609.75L856.212 624H845.806L822.181 555.75H837.743Z" fill="#9D482C"/>
<path d="M919.073 555.75H930.979L948.511 605.859L966.042 555.75H977.948L953.292 624H943.729L919.073 555.75ZM912.651 555.75H924.511L926.667 604.594V624H912.651V555.75ZM972.511 555.75H984.417V624H970.354V604.594L972.511 555.75ZM1022.32 612.562V589.969C1022.32 588.344 1022.05 586.953 1021.52 585.797C1020.99 584.609 1020.16 583.688 1019.04 583.031C1017.94 582.375 1016.52 582.047 1014.77 582.047C1013.27 582.047 1011.97 582.312 1010.88 582.844C1009.79 583.344 1008.94 584.078 1008.35 585.047C1007.75 585.984 1007.46 587.094 1007.46 588.375H993.957C993.957 586.219 994.457 584.172 995.457 582.234C996.457 580.297 997.91 578.594 999.816 577.125C1001.72 575.625 1003.99 574.453 1006.61 573.609C1009.27 572.766 1012.24 572.344 1015.52 572.344C1019.46 572.344 1022.96 573 1026.02 574.312C1029.08 575.625 1031.49 577.594 1033.24 580.219C1035.02 582.844 1035.91 586.125 1035.91 590.062V611.766C1035.91 614.547 1036.08 616.828 1036.43 618.609C1036.77 620.359 1037.27 621.891 1037.93 623.203V624H1024.29C1023.63 622.625 1023.13 620.906 1022.79 618.844C1022.47 616.75 1022.32 614.656 1022.32 612.562ZM1024.1 593.109L1024.19 600.75H1016.64C1014.86 600.75 1013.32 600.953 1012 601.359C1010.69 601.766 1009.61 602.344 1008.77 603.094C1007.93 603.812 1007.3 604.656 1006.89 605.625C1006.52 606.594 1006.33 607.656 1006.33 608.812C1006.33 609.969 1006.6 611.016 1007.13 611.953C1007.66 612.859 1008.43 613.578 1009.43 614.109C1010.43 614.609 1011.6 614.859 1012.94 614.859C1014.97 614.859 1016.74 614.453 1018.24 613.641C1019.74 612.828 1020.89 611.828 1021.71 610.641C1022.55 609.453 1022.99 608.328 1023.02 607.266L1026.58 612.984C1026.08 614.266 1025.39 615.594 1024.52 616.969C1023.68 618.344 1022.6 619.641 1021.29 620.859C1019.97 622.047 1018.39 623.031 1016.55 623.812C1014.71 624.562 1012.52 624.938 1009.99 624.938C1006.77 624.938 1003.85 624.297 1001.22 623.016C998.629 621.703 996.566 619.906 995.035 617.625C993.535 615.312 992.785 612.688 992.785 609.75C992.785 607.094 993.285 604.734 994.285 602.672C995.285 600.609 996.754 598.875 998.691 597.469C1000.66 596.031 1003.11 594.953 1006.05 594.234C1008.99 593.484 1012.39 593.109 1016.27 593.109H1024.1ZM1058.86 551.953V624H1045.36V551.953H1058.86ZM1090.83 573.281L1068.79 598.406L1056.98 610.359L1052.06 600.609L1061.43 588.703L1074.61 573.281H1090.83ZM1076.81 624L1061.81 600.562L1071.14 592.406L1092.37 624H1076.81ZM1118.08 624.938C1114.15 624.938 1110.61 624.312 1107.49 623.062C1104.36 621.781 1101.71 620.016 1099.52 617.766C1097.36 615.516 1095.71 612.906 1094.55 609.938C1093.4 606.938 1092.82 603.75 1092.82 600.375V598.5C1092.82 594.656 1093.36 591.141 1094.46 587.953C1095.55 584.766 1097.11 582 1099.15 579.656C1101.21 577.312 1103.71 575.516 1106.65 574.266C1109.58 572.984 1112.9 572.344 1116.58 572.344C1120.18 572.344 1123.36 572.938 1126.15 574.125C1128.93 575.312 1131.26 577 1133.13 579.188C1135.04 581.375 1136.47 584 1137.44 587.062C1138.41 590.094 1138.9 593.469 1138.9 597.188V602.812H1098.58V593.812H1125.63V592.781C1125.63 590.906 1125.29 589.234 1124.6 587.766C1123.94 586.266 1122.94 585.078 1121.6 584.203C1120.26 583.328 1118.54 582.891 1116.44 582.891C1114.66 582.891 1113.13 583.281 1111.85 584.062C1110.57 584.844 1109.52 585.938 1108.71 587.344C1107.93 588.75 1107.33 590.406 1106.93 592.312C1106.55 594.188 1106.36 596.25 1106.36 598.5V600.375C1106.36 602.406 1106.65 604.281 1107.21 606C1107.8 607.719 1108.63 609.203 1109.69 610.453C1110.79 611.703 1112.1 612.672 1113.63 613.359C1115.19 614.047 1116.96 614.391 1118.93 614.391C1121.36 614.391 1123.63 613.922 1125.72 612.984C1127.85 612.016 1129.68 610.562 1131.21 608.625L1137.77 615.75C1136.71 617.281 1135.26 618.75 1133.41 620.156C1131.6 621.562 1129.41 622.719 1126.85 623.625C1124.29 624.5 1121.36 624.938 1118.08 624.938ZM1159.12 584.344V624H1145.62V573.281H1158.33L1159.12 584.344ZM1174.4 572.953L1174.17 585.469C1173.51 585.375 1172.72 585.297 1171.78 585.234C1170.87 585.141 1170.05 585.094 1169.3 585.094C1167.39 585.094 1165.73 585.344 1164.33 585.844C1162.95 586.312 1161.8 587.016 1160.86 587.953C1159.95 588.891 1159.26 590.031 1158.8 591.375C1158.36 592.719 1158.11 594.25 1158.05 595.969L1155.33 595.125C1155.33 591.844 1155.65 588.828 1156.31 586.078C1156.97 583.297 1157.92 580.875 1159.17 578.812C1160.45 576.75 1162.01 575.156 1163.86 574.031C1165.7 572.906 1167.81 572.344 1170.19 572.344C1170.94 572.344 1171.7 572.406 1172.48 572.531C1173.26 572.625 1173.9 572.766 1174.4 572.953Z" fill="black"/>
</svg>
